HIERARCHY
ROOT Hips
{
    OFFSET 0.000000 0.000000 0.000000
    CHANNELS 6 Xposition Yposition Zposition Zrotation Xrotation Yrotation
    JOINT Spine
    {
        OFFSET -0.000000 7.236184 0.000000
        CHANNELS 3 Zrotation Xrotation Yrotation
        JOINT Spine1
        {
            OFFSET -0.000000 20.420147 0.000000
            CHANNELS 3 Zrotation Xrotation Yrotation
            JOINT Neck
            {
                OFFSET -0.000000 20.336288 1.848754
                CHANNELS 3 Zrotation Xrotation Yrotation
                JOINT Head
                {
                    OFFSET -0.000000 12.354461 -1.764923
                    CHANNELS 3 Zrotation Xrotation Yrotation
                    End Site
                    {
                        OFFSET -0.000000 22.061537 0.000000
                    }
                }
            }
            JOINT LeftShoulder
            {
                OFFSET 3.573296 18.396038 -0.314103
                CHANNELS 3 Zrotation Xrotation Yrotation
                JOINT LeftArm
                {
                    OFFSET 10.880760 0.000000 0.000000
                    CHANNELS 3 Zrotation Xrotation Yrotation
                    JOINT LeftForeArm
                    {
                        OFFSET 27.185530 0.000000 0.000000
                        CHANNELS 3 Zrotation Xrotation Yrotation
                        JOINT LeftHand
                        {
                            OFFSET 27.825975 0.000000 0.000000
                            CHANNELS 3 Zrotation Xrotation Yrotation
                            End Site
                            {
                                OFFSET 13.236923 0.000000 0.000000
                            }
                        }
                    }
                }
            }
            JOINT RightShoulder
            {
                OFFSET -3.474926 18.396038 -0.314103
                CHANNELS 3 Zrotation Xrotation Yrotation
                JOINT RightArm
                {
                    OFFSET -10.880760 0.000000 0.000000
                    CHANNELS 3 Zrotation Xrotation Yrotation
                    JOINT RightForeArm
                    {
                        OFFSET -27.185530 0.000000 0.000000
                        CHANNELS 3 Zrotation Xrotation Yrotation
                        JOINT RightHand
                        {
                            OFFSET -27.825975 0.000000 0.000000
                            CHANNELS 3 Zrotation Xrotation Yrotation
                            End Site
                            {
                                OFFSET -13.236923 0.000000 0.000000
                            }
                        }
                    }
                }
            }
        }
    }
    JOINT LeftUpLeg
    {
        OFFSET 8.824615 0.000000 0.000000
        CHANNELS 3 Zrotation Xrotation Yrotation
        JOINT LeftLeg
        {
            OFFSET -0.000000 -35.111282 0.000000
            CHANNELS 3 Zrotation Xrotation Yrotation
            JOINT LeftFoot
            {
                OFFSET -0.000000 -42.324711 0.000000
                CHANNELS 3 Zrotation Xrotation Yrotation
                JOINT LeftToeBase
                {
                    OFFSET -0.000000 -5.735999 13.236923
                    CHANNELS 3 Zrotation Xrotation Yrotation
                    End Site
                    {
                        OFFSET -0.000000 0.000000 3.529846
                    }
                }
            }
        }
    }
    JOINT RightUpLeg
    {
        OFFSET -8.824615 0.000000 0.000000
        CHANNELS 3 Zrotation Xrotation Yrotation
        JOINT RightLeg
        {
            OFFSET -0.000000 -35.111282 0.000000
            CHANNELS 3 Zrotation Xrotation Yrotation
            JOINT RightFoot
            {
                OFFSET -0.000000 -42.324711 0.000000
                CHANNELS 3 Zrotation Xrotation Yrotation
                JOINT RightToeBase
                {
                    OFFSET -0.000000 -5.735999 13.236923
                    CHANNELS 3 Zrotation Xrotation Yrotation
                    End Site
                    {
                        OFFSET -0.000000 0.000000 3.529846
                    }
                }
            }
        }
    }
}
MOTION
Frames:    7
Frame Time:    0.008333
14.631154    80.263153    113.161972    -1.626937    -16.194920    -169.578110    -2.361543    -10.784462    0.445158    0.132039    9.109822    0.657666    2.667613    8.572413    2.060186    2.686211    -18.062954    2.744503    4.805080    5.182367    -11.051102    -34.712627    25.437853    -68.675598    12.258508    -0.765499    -12.638761    18.128374    0.348383    -1.560165    -5.069904    7.946156    10.140473    26.479599    20.697649    56.849228    -16.345852    -2.151144    22.769278    -16.332729    0.690829    3.292536    13.989116    -32.129482    -2.167830    2.091995    30.994987    4.144483    -13.955297    -1.189019    -16.801514    -1.518793    -4.163348    1.696658    -19.609959    -25.201229    -8.901815    2.075477    30.682550    4.463423    6.413726    -13.828931    -16.950483    -0.220193    -0.877685    0.238446    
14.061490    80.073357    113.185181    -1.399945    -16.103153    -169.827469    -2.336277    -10.766533    0.435491    0.358273    9.198421    0.626903    2.764070    8.483147    2.256498    2.567346    -18.211973    2.907569    4.839487    5.031807    -11.382380    -34.399075    25.189781    -69.331047    12.244702    -0.777726    -12.439921    18.561287    0.304907    -1.572990    -5.020916    8.044387    10.367122    26.828152    19.907854    57.342361    -16.261559    -2.073159    22.179087    -15.687170    0.696744    3.190464    13.829284    -32.244843    -2.074563    2.339673    31.577818    4.045733    -14.228129    -2.094664    -16.771564    -1.471920    -4.163743    1.644299    -19.732193    -25.363693    -8.823990    2.016464    30.982500    4.630007    6.740216    -13.804946    -16.910551    -0.214994    -0.953802    0.232840    
13.480324    79.889931    113.206718    -1.172922    -16.020985    -170.072311    -2.315260    -10.750846    0.428931    0.579377    9.286064    0.599752    2.873947    8.380361    2.445134    2.459001    -18.370489    3.064192    4.868703    4.905692    -11.688440    -34.081322    24.961739    -69.957169    12.249793    -0.778872    -12.282437    19.057909    0.278566    -1.583002    -4.943075    8.172578    10.542452    27.250053    19.148449    57.763344    -16.253042    -2.025695    21.717474    -15.101143    0.704937    3.083243    13.670683    -32.383926    -1.922003    2.605178    32.198997    3.900060    -14.480531    -3.018786    -16.774002    -1.418022    -4.126040    1.583974    -19.862732    -25.503944    -8.726163    1.970680    31.228426    4.768199    7.076970    -13.750896    -16.866701    -0.210638    -1.035296    0.228148    
12.887576    79.715134    113.226410    -0.948086    -15.950117    -170.310577    -2.300614    -10.738823    0.425240    0.795296    9.372138    0.576391    2.996059    8.264549    2.624989    2.361861    -18.538231    3.213432    4.893858    4.805799    -11.967109    -33.758236    24.757484    -70.557648    12.274070    -0.767916    -12.164824    19.616207    0.270365    -1.588724    -4.836962    8.327559    10.662457    27.731537    18.431915    58.112976    -16.321587    -2.007576    21.391554    -14.590105    0.715707    2.976472    13.511045    -32.543785    -1.712519    2.886347    32.843136    3.705198    -14.706363    -3.947574    -16.803503    -1.357741    -4.053486    1.516426    -20.004457    -25.619047    -8.613478    1.936563    31.415325    4.875630    7.425891    -13.662931    -16.812584    -0.206593    -1.123572    0.223796    
12.286714    79.552101    113.243828    -0.728499    -15.892373    -170.538910    -2.293516    -10.732012    0.424212    1.004491    9.455241    0.556632    3.127422    8.137902    2.793886    2.277770    -18.714417    3.353839    4.916464    4.734270    -12.214482    -33.431965    24.582020    -71.131607    12.317805    -0.744721    -12.086023    20.230995    0.280985    -1.589135    -4.704560    8.504778    10.724785    28.256088    17.773746    58.387550    -16.465544    -2.017237    21.209436    -14.167982    0.730118    2.876387    13.348376    -32.720051    -1.452838    3.179511    33.492359    3.462352    -14.898725    -4.864116    -16.852802    -1.292253    -3.951755    1.443002    -20.159025    -25.705366    -8.491617    1.912812    31.537201    4.950128    7.786357    -13.536998    -16.742428    -0.201595    -1.219655    0.218410    
11.678414    79.402740    113.258652    -0.515471    -15.848713    -170.755463    -2.293939    -10.732004    0.425393    1.206809    9.534515    0.540263    3.264922    8.003299    2.950813    2.206923    -18.899815    3.484730    4.937954    4.690700    -12.429327    -33.105831    24.439991    -71.678024    12.381783    -0.709283    -12.044621    20.898846    0.310192    -1.583618    -4.548752    8.700324    10.730042    28.809307    17.184727    58.584396    -16.682711    -2.052939    21.174612    -13.839842    0.749728    2.787663    13.179748    -32.908413    -1.153215    3.480934    34.133274    3.177758    -15.052807    -5.758559    -16.914711    -1.223137    -3.826571    1.365494    -20.328327    -25.760729    -8.365239    1.898556    31.590929    4.991776    8.157906    -13.368910    -16.651726    -0.193577    -1.324919    0.209754    
11.057051    79.267197    113.270523    -0.307432    -15.819230    -170.961166    -2.300851    -10.740176    0.428611    1.404195    9.609436    0.526872    3.407147    7.863163    3.096521    2.147308    -19.097206    3.606470    4.959996    4.673750    -12.613473    -32.781200    24.334755    -72.198814    12.467409    -0.661977    -12.039707    21.622841    0.357861    -1.572027    -4.371037    8.912400    10.680658    29.384211    16.668394    58.699608    -16.972446    -2.113549    21.290237    -13.602903    0.777227    2.712479    13.001015    -33.105721    -0.823822    3.787581    34.760395    2.860382    -15.164864    -6.632624    -16.983521    -1.151147    -3.681477    1.284768    -20.515312    -25.783579    -8.236494    1.893621    31.574390    5.001250    8.542965    -13.152493    -16.535877    -0.180245    -1.442690    0.195341    
